<?xml version="1.0" encoding="UTF-8"?>
<svg id="Layer_2" data-name="Layer 2" xmlns="http://www.w3.org/2000/svg" viewBox="0 0 461.09 461.09">
  <defs>
    <style>
      .cls-1 {
        fill: #fff;
      }

      .cls-2 {
        fill: #ff4902;
      }
    </style>
  </defs>
  <g id="Layer_5" data-name="Layer 5">
    <g>
      <g>
        <g>
          <polygon class="cls-1" points="131.1 149.1 185.58 203.57 237.76 130.1 144.09 130.1 131.1 149.1"/>
          <polygon class="cls-1" points="332.77 69.43 269.77 6.43 254.44 16.21 261.77 9.1 220.24 0 152.52 69.43 332.77 69.43"/>
        </g>
        <g>
          <polygon class="cls-1" points="311.99 329.99 257.52 275.51 330.99 223.33 330.99 317 311.99 329.99"/>
          <polygon class="cls-1" points="391.66 128.32 454.66 191.32 444.88 206.65 451.99 199.32 461.09 240.85 391.66 308.57 391.66 128.32"/>
        </g>
      </g>
      <g>
        <path class="cls-2" d="M101.11,358.76l177.33-249.66H81.77v218.44l-6.55,2.77c-.8.34-1.51.87-2.06,1.56l-10.05,12.56V90.43h280.33L101.11,358.76Z"/>
        <path class="cls-2" d="M102.33,359.98l249.66-177.33v196.67h-218.44s-2.77,6.55-2.77,6.55c-.34.8-.87,1.51-1.56,2.06l-12.56,10.05h254s0-280.33,0-280.33L102.33,359.98Z"/>
      </g>
      <path class="cls-1" d="M55.38,405.71l64.63-91.97-32.24,25.03-9.49,4.59c-.56.27-1.05.65-1.45,1.13L6.22,428.21l-5.69,9.98c-.68,1.19-.7,2.64-.06,3.85l5.42,10.28c.65,1.23,1.65,2.24,2.88,2.88l10.28,5.42c1.21.64,2.66.62,3.85-.06l9.98-5.69,83.73-70.62c.47-.4.86-.89,1.13-1.45l4.59-9.49,25.03-32.24-91.97,64.63Z"/>
    </g>
  </g>
</svg>